<svg xmlns="http://www.w3.org/2000/svg" width="1600" height="900" viewBox="0 0 1600 900" preserveAspectRatio="xMidYMid slice">
  <defs>
    <filter id="blur" x="-20%" y="-20%" width="140%" height="140%">
      <feGaussianBlur stdDeviation="18" />
      <feColorMatrix type="matrix" values="
        0.2 0   0   0 0
        0   0.2 0   0 0
        0   0   0.2 0 0
        0   0   0   0.10 0
      "/>
    </filter>
    <linearGradient id="g" x1="0" y1="0" x2="1" y2="1">
      <stop offset="0" stop-color="#0b1b3a" />
      <stop offset="1" stop-color="#05070d" />
    </linearGradient>
  </defs>

  <rect width="1600" height="900" fill="url(#g)" />

  <g filter="url(#blur)" opacity="0.95">
    <path d="M-120 740 C 260 560, 440 860, 860 720 C 1120 630, 1340 680, 1760 520 L 1760 980 L -120 980 Z" fill="#101a2d" />
    <path d="M-120 520 C 240 360, 620 620, 980 500 C 1220 420, 1440 460, 1760 320 L 1760 980 L -120 980 Z" fill="#0c1426" />
    <path d="M-120 320 C 280 180, 700 360, 1040 270 C 1280 210, 1500 260, 1760 140 L 1760 980 L -120 980 Z" fill="#0a0f1d" />
    <path d="M-120 160 C 220 80, 420 200, 720 140 C 980 90, 1180 120, 1760 40 L 1760 220 C 1200 310, 980 220, 740 250 C 460 290, 240 210, -120 360 Z" fill="#08101f" />
  </g>
</svg>
